<?xml version="1.0" encoding="iso-8859-1"?>
<!-- Uploaded to: SVG Repo, www.svgrepo.com, Generator: SVG Repo Mixer Tools -->
<svg height="800px" width="800px" version="1.1" id="Layer_1" xmlns="http://www.w3.org/2000/svg" xmlns:xlink="http://www.w3.org/1999/xlink" 
	 viewBox="0 0 497.2 497.2" xml:space="preserve">
<path style="fill:#6DB518;" d="M370.2,81.4C351,62.2,351,31.8,369.4,12.6l-4.8-4.8c-10.4-10.4-26.4-10.4-36.8,0l-320,320
	c-10.4,10.4-10.4,26.4,0,36.8l4.8,4.8C31.8,351,63,351,81.4,370.2c19.2,19.2,19.2,49.6,0.8,68.8l39.2,39.2
	c10.4,10.4,26.4,10.4,36.8,0l320-320c10.4-10.4,10.4-26.4,0-36.8L439,82.2C420.6,100.6,389.4,100.6,370.2,81.4z"/>
<path style="fill:#3E6807;" d="M381.4,92.6c-19.2-19.2-19.2-49.6-0.8-68.8l-4.8-4.8C365.4,8.6,349.4,8.6,339,19L19,339
	c-10.4,10.4-10.4,26.4,0,36.8l4.8,4.8c19.2-18.4,50.4-18.4,68.8,0.8c19.2,19.2,19.2,49.6,0.8,68.8l39.2,39.2
	c10.4,10.4,26.4,10.4,36.8,0l320-320c10.4-10.4,10.4-26.4,0-36.8l-39.2-39.2C431.8,111.8,400.6,111.8,381.4,92.6z"/>
<path style="fill:#569316;" d="M374.2,84.6C355,65.4,355,35,373.4,15.8l-4.8-4.8c-10.4-10.4-26.4-10.4-36.8,0l-320,320
	c-10.4,10.4-10.4,26.4,0,36.8l5.6,4c19.2-18.4,50.4-18.4,68.8,0.8c19.2,19.2,19.2,49.6,0.8,68.8l39.2,39.2
	c10.4,10.4,26.4,10.4,36.8,0l320-320c10.4-10.4,10.4-26.4,0-36.8l-39.2-39.2C423.8,103.8,393.4,103.8,374.2,84.6z"/>
<g>
	<path style="fill:#477A0C;" d="M100.6,455.8l24.8,24.8c10.4,10.4,26.4,10.4,36.8,0l320-320c10.4-10.4,10.4-26.4,0-36.8L457.4,99
		L100.6,455.8z"/>
	<path style="fill:#477A0C;" d="M217.4,326.2c9.6,9.6,9.6,24.8,0,33.6l-36.8,36.8c-9.6,9.6-24.8,9.6-33.6,0l-59.2-59.2
		c-9.6-9.6-9.6-24.8,0-33.6l36.8-36.8c9.6-9.6,24.8-9.6,33.6,0L217.4,326.2z"/>
</g>
<path style="fill:#363F3E;" d="M203,311.8c9.6,9.6,9.6,24.8,0,33.6l-36.8,36.8c-9.6,9.6-24.8,9.6-33.6,0L73.4,323
	c-9.6-9.6-9.6-24.8,0-33.6l36.8-36.8c9.6-9.6,24.8-9.6,33.6,0L203,311.8z"/>
<path style="fill:#151918;" d="M72.6,323c-9.6-9.6-9.6-24.8,0-33.6l36.8-36.8c9.6-9.6,24.8-9.6,33.6,0l59.2,59.2
	c9.6,9.6,9.6,24.8,0,33.6"/>
<path style="fill:#477A0C;" d="M307.8,235.8c9.6,9.6,9.6,24.8,0,33.6L271,306.2c-9.6,9.6-24.8,9.6-33.6,0l-60-59.2
	c-9.6-9.6-9.6-24.8,0-33.6l36.8-36.8c9.6-9.6,24.8-9.6,33.6,0L307.8,235.8z"/>
<path style="fill:#363F3E;" d="M293.4,221.4c9.6,9.6,9.6,24.8,0,33.6l-36.8,36.8c-9.6,9.6-24.8,9.6-33.6,0l-59.2-59.2
	c-9.6-9.6-9.6-24.8,0-33.6l36.8-36.8c9.6-9.6,24.8-9.6,33.6,0L293.4,221.4z"/>
<path style="fill:#151918;" d="M163.8,232.6c-9.6-9.6-9.6-24.8,0-33.6l36.8-36.8c9.6-9.6,24.8-9.6,33.6,0l59.2,59.2
	c9.6,9.6,9.6,24.8,0,33.6"/>
<path style="fill:#477A0C;" d="M398.2,144.6c9.6,9.6,9.6,24.8,0,33.6l-36.8,37.6c-9.6,9.6-24.8,9.6-33.6,0l-59.2-59.2
	c-9.6-9.6-9.6-24.8,0-33.6l36.8-36.8c9.6-9.6,24.8-9.6,33.6,0L398.2,144.6z"/>
<path style="fill:#363F3E;" d="M384.6,131c9.6,9.6,9.6,24.8,0,33.6l-36.8,36.8c-9.6,9.6-24.8,9.6-33.6,0L255,142.2
	c-9.6-9.6-9.6-24.8,0-33.6l36.8-36.8c9.6-9.6,24.8-9.6,33.6,0L384.6,131z"/>
<path style="fill:#151918;" d="M254.2,142.2c-9.6-9.6-9.6-24.8,0-33.6L291,71.8c9.6-9.6,24.8-9.6,33.6,0l59.2,59.2
	c9.6,9.6,9.6,24.8,0,33.6"/>
<g>
	<path style="fill:#CC8C0D;" d="M407.8,188.6c-4,4-4,11.2,0,15.2L431,227l15.2-15.2L423,188.6C419,184.6,411.8,184.6,407.8,188.6z"
		/>
	<path style="fill:#CC8C0D;" d="M399,179.8c-4,4-4,11.2,0,15.2l23.2,23.2l15.2-15.2l-23.2-23.2C410.2,175.8,403.8,175.8,399,179.8z"
		/>
</g>
<path style="fill:#E8A615;" d="M403.8,184.6c-4,4-4,11.2,0,15.2l18.4,18.4l15.2-15.2L419,184.6C415,180.6,407.8,180.6,403.8,184.6z"
	/>
<g>
	<path style="fill:#CC8C0D;" d="M153.4,443c-4,4-4,11.2,0,15.2l23.2,23.2l15.2-15.2L168.6,443C164.6,439,157.4,439,153.4,443z"/>
	<path style="fill:#CC8C0D;" d="M144.6,435c-4,4-4,11.2,0,15.2l23.2,23.2l15.2-15.2L159.8,435C155.8,430.2,149.4,430.2,144.6,435z"
		/>
</g>
<path style="fill:#E8A615;" d="M149.4,439c-4,4-4,11.2,0,15.2l18.4,18.4l15.2-15.2L164.6,439C160.6,435,153.4,435,149.4,439z"/>
<g>
	<path style="fill:#CC8C0D;" d="M189.4,407c-4,4-4,11.2,0,15.2l23.2,23.2l15.2-15.2L204.6,407C200.6,402.2,194.2,402.2,189.4,407z"
		/>
	<path style="fill:#CC8C0D;" d="M181.4,398.2c-4,4-4,11.2,0,15.2l23.2,23.2l15.2-15.2l-23.2-23.2
		C192.6,394.2,185.4,394.2,181.4,398.2z"/>
</g>
<path style="fill:#E8A615;" d="M186.2,403c-4,4-4,11.2,0,15.2l18.4,18.4l15.2-15.2L201.4,403C196.6,398.2,190.2,398.2,186.2,403z"/>
<g>
	<path style="fill:#CC8C0D;" d="M226.2,370.2c-4,4-4,11.2,0,15.2l23.2,23.2l15.2-15.2l-23.2-23.2
		C237.4,366.2,230.2,366.2,226.2,370.2z"/>
	<path style="fill:#CC8C0D;" d="M217.4,361.4c-4,4-4,11.2,0,15.2l23.2,23.2l15.2-15.2l-22.4-23.2
		C228.6,357.4,222.2,357.4,217.4,361.4z"/>
</g>
<path style="fill:#E8A615;" d="M222.2,366.2c-4,4-4,11.2,0,15.2l18.4,18.4l15.2-15.2l-18.4-18.4
	C233.4,362.2,226.2,362.2,222.2,366.2z"/>
<g>
	<path style="fill:#CC8C0D;" d="M262.2,333.4c-4,4-4,11.2,0,15.2l23.2,23.2l15.2-15.2l-23.2-23.2C273.4,329.4,267,329.4,262.2,333.4
		z"/>
	<path style="fill:#CC8C0D;" d="M254.2,325.4c-4,4-4,11.2,0,15.2l23.2,23.2l15.2-15.2l-23.2-23.2
		C265.4,321.4,258.2,321.4,254.2,325.4z"/>
</g>
<path style="fill:#E8A615;" d="M259,330.2c-4,4-4,11.2,0,15.2l18.4,18.4l15.2-15.2l-18.4-18.4C270.2,325.4,263,325.4,259,330.2z"/>
<g>
	<path style="fill:#CC8C0D;" d="M299,297.4c-4,4-4,11.2,0,15.2l23.2,23.2l15.2-15.2l-23.2-23.2C310.2,293.4,303,293.4,299,297.4z"/>
	<path style="fill:#CC8C0D;" d="M290.2,288.6c-4,4-4,11.2,0,15.2l23.2,24l16-16l-23.2-23.2C301.4,284.6,295,284.6,290.2,288.6z"/>
</g>
<path style="fill:#E8A615;" d="M295,293.4c-4,4-4,11.2,0,15.2l18.4,19.2l16-16L311,293.4C306.2,289.4,299,289.4,295,293.4z"/>
<g>
	<path style="fill:#CC8C0D;" d="M335,260.6c-4,4-4,11.2,0,15.2l23.2,23.2l15.2-15.2l-23.2-23.2C346.2,256.6,339.8,256.6,335,260.6z"
		/>
	<path style="fill:#CC8C0D;" d="M327,252.6c-4,4-4,11.2,0,15.2l23.2,23.2l15.2-15.2l-23.2-23.2C338.2,248.6,331,248.6,327,252.6z"/>
</g>
<path style="fill:#E8A615;" d="M331.8,257.4c-4,4-4,11.2,0,15.2l18.4,18.4l15.2-15.2L347,257.4C343,252.6,335.8,252.6,331.8,257.4z"
	/>
<g>
	<path style="fill:#CC8C0D;" d="M371.8,224.6c-4,4-4,11.2,0,15.2L395,263l15.2-15.2L387,224.6C383,220.6,375.8,220.6,371.8,224.6z"
		/>
	<path style="fill:#CC8C0D;" d="M363,215.8c-4,4-4,11.2,0,15.2l23.2,23.2l15.2-15.2L379,215.8C374.2,211.8,367.8,211.8,363,215.8z"
		/>
</g>
<path style="fill:#E8A615;" d="M367.8,220.6c-4,4-4,11.2,0,15.2l18.4,18.4l15.2-15.2L383,220.6C379,216.6,372.6,216.6,367.8,220.6z"
	/>
<g>
	<path style="fill:#CC8C0D;" d="M444.6,151.8c-4,4-4,11.2,0,15.2l23.2,23.2L483,175l-23.2-23.2C455.8,147.8,448.6,147.8,444.6,151.8
		z"/>
	<path style="fill:#CC8C0D;" d="M436.6,143c-4,4-4,11.2,0,15.2l23.2,23.2l15.2-15.2L451.8,143C447,139,440.6,139,436.6,143z"/>
</g>
<path style="fill:#E8A615;" d="M440.6,147.8c-4,4-4,11.2,0,15.2l18.4,18.4l15.2-15.2l-18.4-18.4
	C451.8,143.8,445.4,143.8,440.6,147.8z"/>
</svg>